<svg width="80" height="80" viewBox="0 0 80 80" fill="none" xmlns="http://www.w3.org/2000/svg">
<rect width="80" height="80" rx="16" fill="white"/>
<path d="M62.0523 28.7671L63.096 22.3314C63.6654 18.8197 61.8661 15.2853 58.5494 13.979C50.8429 10.9439 46.2412 11.1511 41.6278 16.3471C40.5039 17.6129 40 19.2936 40 20.9846M62.0523 28.7671C65.7965 31.2713 66.6635 34.8061 67.7774 39.4385C67.9679 40.2311 68.0439 41.0507 67.975 41.863C67.5597 46.758 66.5811 49.8596 62.0523 52.503M62.0523 28.7671L55.8648 31.1069M62.0523 52.503L63.0358 58.5674C63.6333 62.252 61.6268 65.9728 58.0323 67.0083C52.0832 68.722 48.0293 68.2842 43.1306 65.1499C41.0753 63.8349 40 61.4683 40 59.0323M62.0523 52.503H56.8283M40 59.0323V48.9001M40 59.0323C40 61.4683 38.9247 63.8349 36.8694 65.1499C31.9707 68.2842 27.9168 68.722 21.9677 67.0083C18.3732 65.9728 16.3667 62.252 16.9642 58.5674L17.9477 52.503M40 48.9001V20.9846M40 48.9001C42.0997 46.4073 43.5598 45.0484 49.9779 43.145M40 48.9001C37.9003 46.4073 36.4402 45.0484 30.0221 43.145M40 20.9846C40 19.2936 39.4961 17.6129 38.3722 16.3471C33.7588 11.1511 29.1571 10.9439 21.4506 13.979C18.1339 15.2853 16.3346 18.8197 16.904 22.3314L17.9477 28.7671M17.9477 28.7671C14.2035 31.2713 13.3365 34.8061 12.2226 39.4385C12.0321 40.2311 11.9561 41.0507 12.025 41.863C12.4403 46.758 13.4189 49.8596 17.9477 52.503M17.9477 28.7671L24.1352 31.1069M17.9477 52.503H23.1717" stroke="black" stroke-width="8" stroke-linecap="round"/>
</svg>
