<svg width="64" height="64" viewBox="0 0 64 64" fill="none" xmlns="http://www.w3.org/2000/svg">
<path d="M54.0523 20.7669L55.096 14.3311C55.6655 10.8195 53.8661 7.28506 50.5494 5.97882C42.8429 2.94369 38.2412 3.15086 33.6278 8.34683C32.5039 9.61266 32 11.2934 32 12.9844M54.0523 20.7669C57.7965 23.2711 58.6635 26.8059 59.7774 31.4383C59.968 32.2309 60.0439 33.0505 59.975 33.8627C59.5597 38.7577 58.5812 41.8594 54.0523 44.5027M54.0523 20.7669L47.8648 23.1066M54.0523 44.5027L55.0358 50.5672C55.6333 54.2517 53.6268 57.9726 50.0323 59.008C44.0832 60.7218 40.0293 60.284 35.1307 57.1497C33.0753 55.8346 32 53.4681 32 51.0321M54.0523 44.5027H48.8283M32 51.0321V40.8999M32 51.0321C32 53.4681 30.9248 55.8346 28.8694 57.1497C23.9707 60.284 19.9168 60.7218 13.9677 59.008C10.3733 57.9726 8.36676 54.2517 8.96426 50.5672L9.94771 44.5027M32 40.8999V12.9844M32 40.8999C34.0997 38.4071 35.5599 37.0482 41.9779 35.1448M32 40.8999C29.9003 38.4071 28.4402 37.0482 22.0221 35.1448M32 12.9844C32 11.2934 31.4961 9.61266 30.3722 8.34683C25.7588 3.15086 21.1571 2.94369 13.4506 5.97882C10.134 7.28506 8.33458 10.8195 8.90404 14.3311L9.94771 20.7669M9.94771 20.7669C6.20351 23.2711 5.33651 26.8059 4.22266 31.4383C4.03207 32.2309 3.95611 33.0505 4.02503 33.8627C4.44035 38.7577 5.41887 41.8594 9.94771 44.5027M9.94771 20.7669L16.1352 23.1066M9.94771 44.5027H15.1717" stroke="black" stroke-width="8" stroke-linecap="round"/>
</svg>
