<svg width="113" height="18" viewBox="0 0 113 18" fill="none" xmlns="http://www.w3.org/2000/svg">
<path d="M15.3007 5.79055L15.5989 3.95175C15.7616 2.94843 15.2474 1.93859 14.2998 1.56538C12.098 0.698201 10.7832 0.757392 9.46509 2.24196C9.14398 2.60362 9 3.08383 9 3.56697M15.3007 5.79055C16.3704 6.50603 16.6181 7.51597 16.9364 8.83951C16.9908 9.06598 17.0125 9.30015 16.9929 9.53222C16.8742 10.9308 16.5946 11.817 15.3007 12.5722M15.3007 5.79055L13.5328 6.45905M15.3007 12.5722L15.5816 14.3049C15.7524 15.3576 15.1791 16.4207 14.1521 16.7166C12.4523 17.2062 11.2941 17.0811 9.89447 16.1856C9.30722 15.8099 9 15.1338 9 14.4378M15.3007 12.5722H13.8081M9 14.4378V11.5428M9 14.4378C9 15.1338 8.69279 15.8099 8.10553 16.1856C6.70591 17.0811 5.54766 17.2062 3.84792 16.7166C2.82093 16.4207 2.24764 15.3576 2.41836 14.3049L2.69934 12.5722M9 11.5428V3.56697M9 11.5428C9.59992 10.8306 10.0171 10.4423 11.8508 9.89852M9 11.5428C8.40008 10.8306 7.9829 10.4423 6.14917 9.89852M9 3.56697C9 3.08383 8.85602 2.60362 8.53491 2.24196C7.21681 0.757392 5.90203 0.698201 3.70017 1.56538C2.75256 1.93859 2.23845 2.94843 2.40115 3.95175L2.69934 5.79055M2.69934 5.79055C1.62957 6.50603 1.38186 7.51597 1.06361 8.83951C1.00916 9.06598 0.987456 9.30015 1.00715 9.53222C1.12581 10.9308 1.40539 11.817 2.69934 12.5722M2.69934 5.79055L4.46719 6.45905M2.69934 12.5722H4.19192" stroke="black" stroke-width="2" stroke-linecap="round"/>
<path d="M26.1489 14.9999V3.63994H31.1249C31.9569 3.63994 32.6769 3.77861 33.2849 4.05594C33.9036 4.33327 34.3782 4.72794 34.7089 5.23994C35.0396 5.74127 35.2049 6.33861 35.2049 7.03194C35.2049 7.55461 35.0929 8.01861 34.8689 8.42394C34.6556 8.82927 34.3569 9.15994 33.9729 9.41594C33.5996 9.67194 33.1676 9.83194 32.6769 9.89594L32.6289 9.75194C33.3862 9.75194 33.9622 9.91727 34.3569 10.2479C34.7516 10.5679 34.9756 11.0639 35.0289 11.7359L35.3169 14.9999H32.8369L32.6289 12.1199C32.5969 11.6826 32.4582 11.3626 32.2129 11.1599C31.9782 10.9466 31.5729 10.8399 30.9969 10.8399H28.5809V14.9999H26.1489ZM28.5809 8.80794H30.8529C31.4396 8.80794 31.8929 8.67461 32.2129 8.40794C32.5436 8.13061 32.7089 7.74127 32.7089 7.23994C32.7089 6.72794 32.5436 6.34394 32.2129 6.08794C31.8822 5.82127 31.4022 5.68794 30.7729 5.68794H28.5809V8.80794Z" fill="black"/>
<path d="M40.1119 15.1919C39.2372 15.1919 38.4746 15.0106 37.8239 14.6479C37.1839 14.2746 36.6826 13.7519 36.3199 13.0799C35.9679 12.4079 35.7919 11.6186 35.7919 10.7119C35.7919 9.80527 35.9679 9.02127 36.3199 8.35994C36.6826 7.68794 37.1839 7.16527 37.8239 6.79194C38.4639 6.41861 39.2212 6.23194 40.0959 6.23194C40.9492 6.23194 41.6906 6.41861 42.3199 6.79194C42.9492 7.16527 43.4346 7.69861 43.7759 8.39194C44.1279 9.08527 44.3039 9.91194 44.3039 10.8719V11.3519H38.2719C38.3039 12.0346 38.4852 12.5413 38.8159 12.8719C39.1572 13.2026 39.6052 13.3679 40.1599 13.3679C40.5652 13.3679 40.9012 13.2826 41.1679 13.1119C41.4452 12.9413 41.6426 12.6799 41.7599 12.3279L44.1759 12.4719C43.9519 13.3253 43.4772 13.9919 42.7519 14.4719C42.0266 14.9519 41.1466 15.1919 40.1119 15.1919ZM38.2719 9.87994H41.8399C41.8079 9.25061 41.6319 8.78127 41.3119 8.47194C41.0026 8.16261 40.5972 8.00794 40.0959 8.00794C39.5946 8.00794 39.1786 8.17327 38.8479 8.50394C38.5279 8.82394 38.3359 9.28261 38.2719 9.87994Z" fill="black"/>
<path d="M48.8111 15.1919C47.9258 15.1919 47.1845 15.0693 46.5871 14.8239C45.9898 14.5679 45.5311 14.2266 45.2111 13.7999C44.9018 13.3626 44.7258 12.8613 44.6831 12.2959L47.1151 12.2159C47.1898 12.6213 47.3605 12.9359 47.6271 13.1599C47.8938 13.3839 48.2885 13.4959 48.8111 13.4959C49.2378 13.4959 49.5685 13.4266 49.8031 13.2879C50.0485 13.1493 50.1711 12.9359 50.1711 12.6479C50.1711 12.4666 50.1285 12.3173 50.0431 12.1999C49.9578 12.0719 49.7871 11.9653 49.5311 11.8799C49.2858 11.7839 48.9178 11.6986 48.4271 11.6239C47.5205 11.4639 46.8111 11.2773 46.2991 11.0639C45.7871 10.8506 45.4245 10.5733 45.2111 10.2319C44.9978 9.89061 44.8911 9.47461 44.8911 8.98394C44.8911 8.16261 45.2058 7.50127 45.8351 6.99994C46.4751 6.48794 47.4298 6.23194 48.6991 6.23194C49.5098 6.23194 50.1871 6.35994 50.7311 6.61594C51.2858 6.87194 51.7125 7.22394 52.0111 7.67194C52.3205 8.10927 52.5125 8.61061 52.5871 9.17594L50.1711 9.27194C50.1391 8.99461 50.0538 8.75994 49.9151 8.56794C49.7871 8.36527 49.6218 8.21061 49.4191 8.10394C49.2165 7.98661 48.9711 7.92794 48.6831 7.92794C48.2565 7.92794 47.9258 8.01861 47.6911 8.19994C47.4671 8.37061 47.3551 8.59994 47.3551 8.88794C47.3551 9.10127 47.4031 9.27727 47.4991 9.41594C47.6058 9.54394 47.7765 9.65061 48.0111 9.73594C48.2458 9.82127 48.5605 9.89061 48.9551 9.94394C49.8725 10.0719 50.5978 10.2533 51.1311 10.4879C51.6751 10.7119 52.0645 10.9946 52.2991 11.3359C52.5338 11.6773 52.6511 12.0986 52.6511 12.5999C52.6511 13.1546 52.4911 13.6239 52.1711 14.0079C51.8511 14.3919 51.4031 14.6853 50.8271 14.8879C50.2618 15.0906 49.5898 15.1919 48.8111 15.1919Z" fill="black"/>
<path d="M56.7779 14.9999C55.8926 14.9999 55.2419 14.7973 54.8259 14.3919C54.4099 13.9759 54.2019 13.3199 54.2019 12.4239V4.40794H56.6019V12.1359C56.6019 12.5519 56.6872 12.8346 56.8579 12.9839C57.0392 13.1333 57.3059 13.2079 57.6579 13.2079H58.8579V14.9999H56.7779ZM52.8259 8.21594V6.42394H58.8579V8.21594H52.8259Z" fill="black"/>
<path d="M59.789 14.9999V6.42394H62.061L62.141 8.91994L61.965 8.87194C62.1037 8.00794 62.349 7.38394 62.701 6.99994C63.053 6.61594 63.5383 6.42394 64.157 6.42394H64.941V8.40794H64.157C63.709 8.40794 63.341 8.46661 63.053 8.58394C62.765 8.70127 62.5463 8.88794 62.397 9.14394C62.2583 9.39994 62.189 9.74661 62.189 10.1839V14.9999H59.789Z" fill="black"/>
<path d="M68.5431 15.1919C67.6578 15.1919 66.9645 14.9093 66.4631 14.3439C65.9725 13.7679 65.7271 12.9679 65.7271 11.9439V6.42394H68.1271V11.3839C68.1271 12.0453 68.2285 12.5306 68.4311 12.8399C68.6338 13.1386 68.9538 13.2879 69.3911 13.2879C69.8818 13.2879 70.2605 13.1226 70.5271 12.7919C70.8045 12.4506 70.9431 11.9439 70.9431 11.2719V6.42394H73.3431V14.9999H71.1511L71.0871 12.5359L71.3911 12.5999C71.2631 13.4533 70.9591 14.0986 70.4791 14.5359C69.9991 14.9733 69.3538 15.1919 68.5431 15.1919Z" fill="black"/>
<path d="M78.5376 15.1919C77.663 15.1919 76.9003 15.0106 76.2496 14.6479C75.599 14.2746 75.0923 13.7519 74.7296 13.0799C74.367 12.4079 74.1856 11.6186 74.1856 10.7119C74.1856 9.80527 74.367 9.02127 74.7296 8.35994C75.0923 7.68794 75.599 7.16527 76.2496 6.79194C76.9003 6.41861 77.663 6.23194 78.5376 6.23194C79.295 6.23194 79.9723 6.36527 80.5696 6.63194C81.1776 6.89861 81.6683 7.28261 82.0416 7.78394C82.415 8.28527 82.6443 8.88794 82.7296 9.59194L80.2496 9.70394C80.175 9.17061 79.983 8.77061 79.6736 8.50394C79.375 8.22661 78.9963 8.08794 78.5376 8.08794C77.9403 8.08794 77.4763 8.31727 77.1456 8.77594C76.815 9.23461 76.6496 9.87994 76.6496 10.7119C76.6496 11.5439 76.815 12.1946 77.1456 12.6639C77.4763 13.1226 77.9403 13.3519 78.5376 13.3519C78.9963 13.3519 79.3803 13.2133 79.6896 12.9359C79.999 12.6479 80.1856 12.2159 80.2496 11.6399L82.7296 11.7359C82.655 12.4399 82.431 13.0533 82.0576 13.5759C81.695 14.0879 81.2096 14.4879 80.6016 14.7759C80.0043 15.0533 79.3163 15.1919 78.5376 15.1919Z" fill="black"/>
<path d="M86.7023 14.9999C85.8169 14.9999 85.1663 14.7973 84.7503 14.3919C84.3343 13.9759 84.1263 13.3199 84.1263 12.4239V4.40794H86.5263V12.1359C86.5263 12.5519 86.6116 12.8346 86.7823 12.9839C86.9636 13.1333 87.2303 13.2079 87.5823 13.2079H88.7823V14.9999H86.7023ZM82.7503 8.21594V6.42394H88.7823V8.21594H82.7503Z" fill="black"/>
<path d="M92.4356 15.1919C91.5503 15.1919 90.857 14.9093 90.3556 14.3439C89.865 13.7679 89.6196 12.9679 89.6196 11.9439V6.42394H92.0196V11.3839C92.0196 12.0453 92.121 12.5306 92.3236 12.8399C92.5263 13.1386 92.8463 13.2879 93.2836 13.2879C93.7743 13.2879 94.153 13.1226 94.4196 12.7919C94.697 12.4506 94.8356 11.9439 94.8356 11.2719V6.42394H97.2356V14.9999H95.0436L94.9796 12.5359L95.2836 12.5999C95.1556 13.4533 94.8516 14.0986 94.3716 14.5359C93.8916 14.9733 93.2463 15.1919 92.4356 15.1919Z" fill="black"/>
<path d="M98.6984 14.9999V6.42394H100.97L101.05 8.91994L100.874 8.87194C101.013 8.00794 101.258 7.38394 101.61 6.99994C101.962 6.61594 102.448 6.42394 103.066 6.42394H103.85V8.40794H103.066C102.618 8.40794 102.25 8.46661 101.962 8.58394C101.674 8.70127 101.456 8.88794 101.306 9.14394C101.168 9.39994 101.098 9.74661 101.098 10.1839V14.9999H98.6984Z" fill="black"/>
<path d="M108.071 15.1919C107.196 15.1919 106.433 15.0106 105.783 14.6479C105.143 14.2746 104.641 13.7519 104.279 13.0799C103.927 12.4079 103.751 11.6186 103.751 10.7119C103.751 9.80527 103.927 9.02127 104.279 8.35994C104.641 7.68794 105.143 7.16527 105.783 6.79194C106.423 6.41861 107.18 6.23194 108.055 6.23194C108.908 6.23194 109.649 6.41861 110.279 6.79194C110.908 7.16527 111.393 7.69861 111.735 8.39194C112.087 9.08527 112.263 9.91194 112.263 10.8719V11.3519H106.231C106.263 12.0346 106.444 12.5413 106.775 12.8719C107.116 13.2026 107.564 13.3679 108.119 13.3679C108.524 13.3679 108.86 13.2826 109.127 13.1119C109.404 12.9413 109.601 12.6799 109.719 12.3279L112.135 12.4719C111.911 13.3253 111.436 13.9919 110.711 14.4719C109.985 14.9519 109.105 15.1919 108.071 15.1919ZM106.231 9.87994H109.799C109.767 9.25061 109.591 8.78127 109.271 8.47194C108.961 8.16261 108.556 8.00794 108.055 8.00794C107.553 8.00794 107.137 8.17327 106.807 8.50394C106.487 8.82394 106.295 9.28261 106.231 9.87994Z" fill="black"/>
</svg>
