<svg width="109" height="18" viewBox="0 0 109 18" fill="none" xmlns="http://www.w3.org/2000/svg">
<path d="M26.184 14.9999V3.63994H30.6C32.008 3.63994 33.0853 3.8906 33.832 4.39194C34.5787 4.8826 34.952 5.66127 34.952 6.72794C34.952 7.19727 34.856 7.60794 34.664 7.95994C34.472 8.30127 34.1893 8.57327 33.816 8.77594C33.4533 8.9786 33.0107 9.10127 32.488 9.14394V9.11194C33.4373 9.17594 34.1627 9.45327 34.664 9.94394C35.176 10.4239 35.432 11.0639 35.432 11.8639C35.432 12.9199 35.0587 13.7093 34.312 14.2319C33.576 14.7439 32.52 14.9999 31.144 14.9999H26.184ZM28.616 13.0159H31.032C31.6187 13.0159 32.088 12.8986 32.44 12.6639C32.8027 12.4186 32.984 12.0559 32.984 11.5759C32.984 11.0959 32.8027 10.7333 32.44 10.4879C32.088 10.2319 31.6187 10.1039 31.032 10.1039H28.616V13.0159ZM28.616 8.34394H30.536C31.1333 8.34394 31.608 8.2266 31.96 7.99194C32.3227 7.75727 32.504 7.42127 32.504 6.98394C32.504 6.5146 32.328 6.17327 31.976 5.95994C31.6347 5.73594 31.1547 5.62394 30.536 5.62394H28.616V8.34394Z" fill="black"/>
<path d="M36.8297 14.9999V6.42394H39.1017L39.1817 8.91994L39.0057 8.87194C39.1444 8.00794 39.3897 7.38394 39.7417 6.99994C40.0937 6.61594 40.5791 6.42394 41.1977 6.42394H41.9817V8.40794H41.1977C40.7497 8.40794 40.3817 8.4666 40.0937 8.58394C39.8057 8.70127 39.5871 8.88794 39.4377 9.14394C39.2991 9.39994 39.2297 9.7466 39.2297 10.1839V14.9999H36.8297Z" fill="black"/>
<path d="M45.3037 15.1919C44.4184 15.1919 43.6931 14.9893 43.1277 14.5839C42.5731 14.1679 42.2957 13.5919 42.2957 12.8559C42.2957 12.0986 42.5304 11.5173 42.9997 11.1119C43.4797 10.6959 44.1837 10.3919 45.1117 10.1999L47.8797 9.65594C47.8797 9.10127 47.7517 8.68527 47.4957 8.40794C47.2504 8.11994 46.8931 7.97594 46.4237 7.97594C45.9651 7.97594 45.6077 8.0826 45.3517 8.29594C45.0957 8.4986 44.9304 8.8026 44.8557 9.20794L42.4397 9.09594C42.5997 8.15727 43.0211 7.44794 43.7037 6.96794C44.3971 6.47727 45.3037 6.23194 46.4237 6.23194C47.7037 6.23194 48.6637 6.53594 49.3037 7.14394C49.9544 7.75194 50.2797 8.6426 50.2797 9.81594V12.7439C50.2797 12.9893 50.3171 13.1546 50.3918 13.2399C50.4771 13.3146 50.5997 13.3519 50.7598 13.3519H50.9997V14.9999C50.9251 15.0213 50.8024 15.0426 50.6317 15.0639C50.4717 15.0853 50.3117 15.0959 50.1517 15.0959C49.8104 15.0959 49.4904 15.0373 49.1917 14.9199C48.9037 14.8026 48.6691 14.6053 48.4877 14.3279C48.3064 14.0399 48.2157 13.6346 48.2157 13.1119L48.4237 13.2719C48.3171 13.6559 48.1251 13.9919 47.8477 14.2799C47.5811 14.5679 47.2291 14.7919 46.7917 14.9519C46.3651 15.1119 45.8691 15.1919 45.3037 15.1919ZM45.8797 13.5439C46.2744 13.5439 46.6211 13.4693 46.9197 13.3199C47.2184 13.1599 47.4531 12.9306 47.6237 12.6319C47.7944 12.3333 47.8797 11.9813 47.8797 11.5759V11.1599L45.9277 11.5759C45.5437 11.6506 45.2504 11.7786 45.0477 11.9599C44.8557 12.1306 44.7597 12.3546 44.7597 12.6319C44.7597 12.9199 44.8557 13.1439 45.0477 13.3039C45.2397 13.4639 45.5171 13.5439 45.8797 13.5439Z" fill="black"/>
<path d="M51.8147 14.9999V6.42394H54.2147V14.9999H51.8147ZM51.7667 5.36794V3.44794H54.2467V5.36794H51.7667Z" fill="black"/>
<path d="M56.1041 14.9999V6.42394H58.2641L58.3601 8.93594L58.0561 8.85594C58.1415 8.21594 58.3121 7.70394 58.5681 7.31994C58.8348 6.93594 59.1655 6.6586 59.5601 6.48794C59.9548 6.31727 60.3868 6.23194 60.8561 6.23194C61.4748 6.23194 61.9975 6.36527 62.4241 6.63194C62.8615 6.8986 63.1921 7.27727 63.4161 7.76794C63.6508 8.24794 63.7681 8.8186 63.7681 9.47994V14.9999H61.3681V10.2799C61.3681 9.82127 61.3308 9.43194 61.2561 9.11194C61.1815 8.79194 61.0481 8.55194 60.8561 8.39194C60.6641 8.22127 60.3975 8.13594 60.0561 8.13594C59.5548 8.13594 59.1708 8.3226 58.9041 8.69594C58.6375 9.0586 58.5041 9.5866 58.5041 10.2799V14.9999H56.1041Z" fill="black"/>
<path d="M65.5527 14.9999V3.63994H69.4727C71.3181 3.63994 72.7368 4.13594 73.7288 5.12794C74.7208 6.10927 75.2168 7.51194 75.2168 9.33594C75.2168 11.1493 74.7261 12.5466 73.7448 13.5279C72.7741 14.5093 71.3821 14.9999 69.5687 14.9999H65.5527ZM67.9847 12.9519H69.4727C70.5714 12.9519 71.3821 12.6586 71.9048 12.0719C72.4381 11.4746 72.7048 10.5573 72.7048 9.31994C72.7048 8.0826 72.4381 7.1706 71.9048 6.58394C71.3821 5.9866 70.5714 5.68794 69.4727 5.68794H67.9847V12.9519Z" fill="black"/>
<path d="M79.4364 15.1919C78.551 15.1919 77.8577 14.9093 77.3564 14.3439C76.8657 13.7679 76.6204 12.9679 76.6204 11.9439V6.42394H79.0204V11.3839C79.0204 12.0453 79.1217 12.5306 79.3244 12.8399C79.527 13.1386 79.847 13.2879 80.2844 13.2879C80.775 13.2879 81.1537 13.1226 81.4204 12.7919C81.6977 12.4506 81.8364 11.9439 81.8364 11.2719V6.42394H84.2364V14.9999H82.0444L81.9804 12.5359L82.2844 12.5999C82.1564 13.4533 81.8524 14.0986 81.3724 14.5359C80.8924 14.9733 80.247 15.1919 79.4364 15.1919Z" fill="black"/>
<path d="M86.0191 14.9999V6.42394H88.1791L88.2591 8.48794L88.0351 8.39194C88.1525 7.93327 88.3285 7.54394 88.5631 7.22394C88.8085 6.90394 89.1018 6.6586 89.4431 6.48794C89.7845 6.31727 90.1578 6.23194 90.5631 6.23194C91.2778 6.23194 91.8538 6.43994 92.2911 6.85594C92.7391 7.27194 93.0271 7.83194 93.1551 8.53594L92.8511 8.55194C92.9471 8.0506 93.1125 7.62927 93.3471 7.28794C93.5925 6.93594 93.8911 6.6746 94.2431 6.50394C94.5951 6.3226 94.9898 6.23194 95.4271 6.23194C96.0245 6.23194 96.5365 6.3546 96.9631 6.59994C97.3898 6.84527 97.7205 7.21327 97.9551 7.70394C98.1898 8.18394 98.3071 8.77594 98.3071 9.47994V14.9999H95.9071V10.1519C95.9071 9.47994 95.8058 8.9786 95.6031 8.64794C95.4005 8.3066 95.0698 8.13594 94.6111 8.13594C94.3231 8.13594 94.0778 8.21594 93.8751 8.37594C93.6725 8.53594 93.5125 8.7706 93.3951 9.07994C93.2885 9.3786 93.2351 9.7466 93.2351 10.1839V14.9999H91.0751V10.1839C91.0751 9.5226 90.9791 9.01594 90.7871 8.66394C90.5951 8.31194 90.2645 8.13594 89.7951 8.13594C89.5071 8.13594 89.2565 8.21594 89.0431 8.37594C88.8405 8.53594 88.6858 8.7706 88.5791 9.07994C88.4725 9.38927 88.4191 9.75727 88.4191 10.1839V14.9999H86.0191Z" fill="black"/>
<path d="M99.8554 17.3999V6.42394H102.159L102.207 8.23194L102.015 8.15194C102.229 7.53327 102.575 7.0586 103.055 6.72794C103.535 6.39727 104.095 6.23194 104.735 6.23194C105.535 6.23194 106.202 6.42927 106.735 6.82394C107.269 7.2186 107.669 7.75727 107.935 8.43994C108.213 9.11194 108.351 9.86927 108.351 10.7119C108.351 11.5439 108.213 12.3013 107.935 12.9839C107.669 13.6666 107.263 14.2053 106.719 14.5999C106.186 14.9946 105.519 15.1919 104.719 15.1919C104.303 15.1919 103.914 15.1173 103.551 14.9679C103.189 14.8079 102.874 14.5893 102.607 14.3119C102.351 14.0346 102.165 13.7039 102.047 13.3199L102.255 13.1919V17.3999H99.8554ZM104.063 13.3519C104.629 13.3519 105.071 13.1173 105.391 12.6479C105.722 12.1786 105.887 11.5333 105.887 10.7119C105.887 9.8906 105.722 9.24527 105.391 8.77594C105.071 8.3066 104.629 8.07194 104.063 8.07194C103.69 8.07194 103.365 8.17327 103.087 8.37594C102.821 8.56794 102.613 8.86127 102.463 9.25594C102.325 9.6506 102.255 10.1359 102.255 10.7119C102.255 11.2879 102.325 11.7733 102.463 12.1679C102.613 12.5626 102.821 12.8613 103.087 13.0639C103.365 13.2559 103.69 13.3519 104.063 13.3519Z" fill="black"/>
<path d="M15.3007 5.79055L15.5989 3.95175C15.7616 2.94843 15.2474 1.93859 14.2998 1.56538C12.098 0.698201 10.7832 0.757392 9.46509 2.24196C9.14398 2.60362 9 3.08383 9 3.56697M15.3007 5.79055C16.3704 6.50603 16.6181 7.51597 16.9364 8.83951C16.9908 9.06598 17.0125 9.30015 16.9929 9.53222C16.8742 10.9308 16.5946 11.817 15.3007 12.5722M15.3007 5.79055L13.5328 6.45905M15.3007 12.5722L15.5816 14.3049C15.7524 15.3576 15.1791 16.4207 14.1521 16.7166C12.4523 17.2062 11.2941 17.0811 9.89447 16.1856C9.30722 15.8099 9 15.1338 9 14.4378M15.3007 12.5722H13.8081M9 14.4378V11.5428M9 14.4378C9 15.1338 8.69279 15.8099 8.10553 16.1856C6.70591 17.0811 5.54766 17.2062 3.84792 16.7166C2.82093 16.4207 2.24764 15.3576 2.41836 14.3049L2.69934 12.5722M9 11.5428V3.56697M9 11.5428C9.59992 10.8306 10.0171 10.4423 11.8508 9.89852M9 11.5428C8.40008 10.8306 7.9829 10.4423 6.14917 9.89852M9 3.56697C9 3.08383 8.85602 2.60362 8.53491 2.24196C7.21681 0.757392 5.90203 0.698201 3.70017 1.56538C2.75256 1.93859 2.23845 2.94843 2.40115 3.95175L2.69934 5.79055M2.69934 5.79055C1.62957 6.50603 1.38186 7.51597 1.06361 8.83951C1.00916 9.06598 0.987456 9.30015 1.00715 9.53222C1.12581 10.9308 1.40539 11.817 2.69934 12.5722M2.69934 5.79055L4.46719 6.45905M2.69934 12.5722H4.19192" stroke="black" stroke-width="2" stroke-linecap="round"/>
</svg>
